<?xml version="1.0" standalone="no"?>
<!DOCTYPE svg PUBLIC "-//W3C//DTD SVG 20010904//EN"
 "http://www.w3.org/TR/2001/REC-SVG-20010904/DTD/svg10.dtd">
<svg version="1.0" xmlns="http://www.w3.org/2000/svg"
 width="1280.000000pt" height="1280.000000pt" viewBox="0 0 1280.000000 1280.000000"
 preserveAspectRatio="xMidYMid meet">
<g transform="translate(0.000000,1280.000000) scale(0.100000,-0.100000)"
fill="#000000" stroke="none">
<path d="M2756 8671 l-2430 -2430 222 -228 c121 -125 1215 -1222 2431 -2438
1478 -1477 2212 -2204 2216 -2195 3 8 6 555 8 1215 l2 1200 2870 5 2870 5 3
2432 2 2433 -2872 2 -2873 3 -3 1213 c-1 666 -5 1212 -10 1212 -4 0 -1100
-1093 -2436 -2429z"/>
<path d="M11252 6238 l3 -2433 302 -3 303 -2 5 22 c3 13 4 1108 3 2433 l-3
2410 -308 3 -307 2 2 -2432z"/>
<path d="M12170 6235 l0 -2435 150 0 150 0 0 2435 0 2435 -150 0 -150 0 0
-2435z"/>
</g>
</svg>
